<svg width="40" height="40" viewBox="0 0 40 40" fill="none" xmlns="http://www.w3.org/2000/svg">
<rect width="40" height="40" rx="20" fill="#F4FCFF"/>
<path d="M31.7209 16.3365C31.4434 15.6769 30.9823 15.2013 30.3872 14.9618L30.3792 14.9588C30.1084 14.8527 29.82 14.7984 29.5291 14.7988H29.4971C28.1349 14.8193 26.7442 15.9769 26.0371 17.6797C25.5185 18.9248 25.459 20.264 25.8781 21.2622C26.1551 21.9222 26.6172 22.3978 27.2148 22.6373L27.2213 22.6398C27.4922 22.7459 27.7805 22.8001 28.0714 22.7999C29.4466 22.7999 30.8518 21.6422 31.5719 19.917C32.084 18.6733 32.1405 17.3351 31.7209 16.3365Z" fill="#387E96"/>
<path d="M26.2781 23.6805C25.4925 23.2084 24.7499 22.7619 24.2649 21.9598C22.9267 19.7394 22.1186 18.3993 19.9998 18.3993C17.881 18.3993 17.0709 19.7394 15.7297 21.9598C15.2436 22.7629 14.4995 23.2099 13.7114 23.684C12.8078 24.2271 11.8742 24.7881 11.4711 25.8923C11.3144 26.2903 11.2355 26.7147 11.2386 27.1425C11.2386 28.9402 12.6388 30.4029 14.359 30.4029C15.2466 30.4029 16.1913 30.0954 17.1909 29.7698C18.152 29.4568 19.1457 29.1332 20.0048 29.1332C20.8639 29.1332 21.855 29.4568 22.8127 29.7698C23.8103 30.0934 24.7504 30.4009 25.6406 30.4009C27.3583 30.4009 28.756 28.9382 28.756 27.1405C28.7574 26.7124 28.6768 26.288 28.5185 25.8903C28.1154 24.7851 27.1813 24.2236 26.2781 23.6805Z" fill="#387E96"/>
<path d="M14.6991 16.6415C15.2941 17.3881 16.0492 17.7992 16.8253 17.7992C16.9313 17.7992 17.0371 17.7913 17.1419 17.7757C18.7606 17.5376 19.7693 15.5624 19.4382 13.2751C19.2997 12.3134 18.9296 11.4178 18.3996 10.7537C17.8055 10.0086 17.0494 9.59805 16.2738 9.59805C16.1678 9.59805 16.062 9.60591 15.9572 9.62155C14.3385 9.85958 13.3299 11.8349 13.6609 14.1222C13.7989 15.0823 14.169 15.9769 14.6991 16.6415Z" fill="#387E96"/>
<path d="M22.8582 17.7757C22.963 17.7913 23.0688 17.7992 23.1747 17.7992C23.9513 17.7992 24.7059 17.3881 25.301 16.6415C25.8306 15.9769 26.1986 15.0823 26.3387 14.1212C26.6697 11.8349 25.6611 9.85958 24.0423 9.62055C23.9376 9.60491 23.8317 9.59705 23.7258 9.59705C22.9502 9.59805 22.1941 10.0086 21.6 10.7537C21.0699 11.4178 20.6999 12.3134 20.5619 13.2761C20.2308 15.5624 21.2395 17.5376 22.8582 17.7757Z" fill="#387E96"/>
<path d="M12.7783 22.6398L12.7853 22.6373C13.3819 22.3978 13.8434 21.9227 14.12 21.2632C14.539 20.263 14.48 18.9253 13.9624 17.6802C13.2459 15.9569 11.8412 14.7988 10.4675 14.7988C10.1766 14.7983 9.88819 14.8526 9.61735 14.9588L9.61035 14.9613C9.01527 15.1988 8.5537 15.6759 8.27716 16.3355C7.85811 17.3356 7.91711 18.6733 8.43469 19.9185C9.15128 21.6417 10.556 22.7999 11.9297 22.7999C12.2201 22.8001 12.5079 22.7458 12.7783 22.6398Z" fill="#387E96"/>
</svg>
